<!-- icon666.com - MILLIONS OF FREE VECTOR ICONS --><svg id="Layer_1" viewBox="0 0 32 32" xmlns="http://www.w3.org/2000/svg" data-name="Layer 1"><path d="m29.5 5.9999a3.49938 3.49938 0 0 0 -3.5-3.49985h-20a3.49938 3.49938 0 0 0 -3.5 3.49985v19.99994a3.49981 3.49981 0 0 0 3.5 3.50016h20a3.49981 3.49981 0 0 0 3.5-3.50011zm-3 0v19.99994a.49776.49776 0 0 1 -.5.5h-20a.49766.49766 0 0 1 -.5-.5v-19.99994a.49766.49766 0 0 1 .5-.49985h20a.49776.49776 0 0 1 .5.49985zm-12 8.50016h-3.5a1.49994 1.49994 0 1 0 0 2.99988h3.5v3.50011a1.5 1.5 0 0 0 2.99994 0v-3.50011h3.50006a1.49994 1.49994 0 1 0 0-2.99988h-3.5v-3.50006a1.5 1.5 0 1 0 -3 0v3.50011z" fill-rule="evenodd"></path></svg>