<!-- icon666.com - MILLIONS OF FREE VECTOR ICONS --><svg id="Layer_1" enable-background="new 0 0 24 24" viewBox="0 0 24 24" xmlns="http://www.w3.org/2000/svg"><path d="m21.5 6.5h-6.5v-3c0-.6-.4-1-1-1h-4c-.6 0-1 .4-1 1v3h-6.5c-.6 0-1 .4-1 1v4c0 .6.4 1 1 1h.5v8c0 .6.4 1 1 1h16c.6 0 1-.4 1-1v-8h.5c.6 0 1-.4 1-1v-4c0-.6-.4-1-1-1zm-2.5 13h-2v-2c0-.6-.4-1-1-1s-1 .4-1 1v2h-2v-2.1c0-.6-.4-1-1-1s-1 .4-1 1v2.1h-2v-2c0-.6-.4-1-1-1s-1 .4-1 1v2h-2v-7h14zm1.5-9h-17v-2h6.5c.6 0 1-.4 1-1v-3h2v3c0 .6.4 1 1 1h6.5z" fill="rgb(0,0,0)"></path></svg>