<!-- icon666.com - MILLIONS OF FREE VECTOR ICONS --><svg viewBox="0 0 24 24" xmlns="http://www.w3.org/2000/svg"><g id="save"><path d="m21 6.586-3.586-3.586c-.579-.58-1.595-1-2.414-1h-10c-1.654 0-3 1.346-3 3v14c0 1.654 1.346 3 3 3h14c1.654 0 3-1.346 3-3v-10c0-.819-.421-1.835-1-2.414zm-11-2.586h4v2h-4zm6 16h-8v-3c0-.551.448-1 1-1h6c.552 0 1 .449 1 1zm4-1c0 .551-.448 1-1 1h-1v-3c0-1.654-1.346-3-3-3h-6c-1.654 0-3 1.346-3 3v3h-1c-.552 0-1-.449-1-1v-14c0-.551.448-1 1-1h3v3c0 .552.447 1 1 1h6c.553 0 1-.448 1-1v-2.586l3.586 3.586c.201.201.414.715.414 1z"></path></g></svg>